<?xml version="1.0" encoding="UTF-8"?>
<svg width="1581px" height="483px" viewBox="0 0 1581 483" version="1.1" xmlns="http://www.w3.org/2000/svg" xmlns:xlink="http://www.w3.org/1999/xlink">
  <!-- Generator: Sketch 55 (78076) - https://sketchapp.com -->
  <title>team-cover-pattern</title>
  <desc>Created with Sketch.</desc>
  <g id="team-cover-pattern" stroke="none" stroke-width="1" fill="none" fill-rule="evenodd" stroke-opacity="0.6">
    <g id="Group-3-Copy-3" transform="translate(103.609989, 390.096244) rotate(66.000000) translate(-103.609989, -390.096244) translate(76.109989, 354.596244)" fill-rule="nonzero" stroke="#FFFFFF" stroke-width="8">
      <path d="M36.0672946,54 L43.7763932,69.4181972 C44.0233825,69.9121757 43.8231581,70.5128488 43.3291796,70.759838 C43.1903242,70.8292657 43.0372111,70.8654108 42.881966,70.8654108 L12.118034,70.8654108 C11.5657492,70.8654108 11.118034,70.4176956 11.118034,69.8654108 C11.118034,69.7101657 11.1541791,69.5570526 11.2236068,69.4181972 L18.9327054,54 L1.61803399,54 C1.06574924,54 0.618033989,53.5522847 0.618033989,53 C0.618033989,52.8447549 0.654179081,52.6916418 0.723606798,52.5527864 L26.6055728,0.788854382 C26.8525621,0.294875885 27.4532351,0.0946515378 27.9472136,0.341640787 C28.140741,0.438404488 28.2976635,0.59532698 28.3944272,0.788854382 L54.2763932,52.5527864 C54.5233825,53.0467649 54.3231581,53.6474379 53.8291796,53.8944272 C53.6903242,53.9638549 53.5372111,54 53.381966,54 L36.0672946,54 Z M36.0672946,54 L28.3944272,38.6542652 C28.2976635,38.4607378 28.140741,38.3038153 27.9472136,38.2070516 C27.4532351,37.9600623 26.8525621,38.1602867 26.6055728,38.6542652 L18.9327054,54 L36.0672946,54 Z" id="Combined-Shape"></path>
    </g>
    <g id="Group-3-Copy-6" transform="translate(264.539712, 111.016688) rotate(103.000000) translate(-264.539712, -111.016688) translate(237.039712, 75.516688)" fill-rule="nonzero" stroke="#FFFFFF" stroke-width="8">
      <path d="M36.0672946,54 L43.7763932,69.4181972 C44.0233825,69.9121757 43.8231581,70.5128488 43.3291796,70.759838 C43.1903242,70.8292657 43.0372111,70.8654108 42.881966,70.8654108 L12.118034,70.8654108 C11.5657492,70.8654108 11.118034,70.4176956 11.118034,69.8654108 C11.118034,69.7101657 11.1541791,69.5570526 11.2236068,69.4181972 L18.9327054,54 L1.61803399,54 C1.06574924,54 0.618033989,53.5522847 0.618033989,53 C0.618033989,52.8447549 0.654179081,52.6916418 0.723606798,52.5527864 L26.6055728,0.788854382 C26.8525621,0.294875885 27.4532351,0.0946515378 27.9472136,0.341640787 C28.140741,0.438404488 28.2976635,0.59532698 28.3944272,0.788854382 L54.2763932,52.5527864 C54.5233825,53.0467649 54.3231581,53.6474379 53.8291796,53.8944272 C53.6903242,53.9638549 53.5372111,54 53.381966,54 L36.0672946,54 Z M36.0672946,54 L28.3944272,38.6542652 C28.2976635,38.4607378 28.140741,38.3038153 27.9472136,38.2070516 C27.4532351,37.9600623 26.8525621,38.1602867 26.6055728,38.6542652 L18.9327054,54 L36.0672946,54 Z" id="Combined-Shape"></path>
    </g>
    <g id="Group" transform="translate(710.110956, 406.514320)" fill-rule="nonzero" stroke="#FFFFFF" stroke-width="8">
      <g id="Group-3-Copy-5" transform="translate(45.134323, 44.659001) rotate(133.000000) translate(-45.134323, -44.659001) translate(17.634323, 9.159001)">
        <path d="M36.0672946,54 L43.7763932,69.4181972 C44.0233825,69.9121757 43.8231581,70.5128488 43.3291796,70.759838 C43.1903242,70.8292657 43.0372111,70.8654108 42.881966,70.8654108 L12.118034,70.8654108 C11.5657492,70.8654108 11.118034,70.4176956 11.118034,69.8654108 C11.118034,69.7101657 11.1541791,69.5570526 11.2236068,69.4181972 L18.9327054,54 L1.61803399,54 C1.06574924,54 0.618033989,53.5522847 0.618033989,53 C0.618033989,52.8447549 0.654179081,52.6916418 0.723606798,52.5527864 L26.6055728,0.788854382 C26.8525621,0.294875885 27.4532351,0.0946515378 27.9472136,0.341640786 C28.140741,0.438404488 28.2976635,0.59532698 28.3944272,0.788854382 L54.2763932,52.5527864 C54.5233825,53.0467649 54.3231581,53.6474379 53.8291796,53.8944272 C53.6903242,53.9638549 53.5372111,54 53.381966,54 L36.0672946,54 Z M36.0672946,54 L28.3944272,38.6542652 C28.2976635,38.4607378 28.140741,38.3038153 27.9472136,38.2070516 C27.4532351,37.9600623 26.8525621,38.1602867 26.6055728,38.6542652 L18.9327054,54 L36.0672946,54 Z" id="Combined-Shape"></path>
      </g>
    </g>
    <path d="M707.449261,18.8029363 L715.158359,34.2211335 C715.405348,34.715112 715.205124,35.315785 714.711146,35.5627743 C714.57229,35.632202 714.419177,35.6683471 714.263932,35.6683471 L683.5,35.6683471 C682.947715,35.6683471 682.5,35.2206319 682.5,34.6683471 C682.5,34.513102 682.536145,34.3599889 682.605573,34.2211335 L690.314671,18.8029363 L673,18.8029363 C672.447715,18.8029363 672,18.355221 672,17.8029363 C672,17.6476912 672.036145,17.4945781 672.105573,17.3557227 L697.987539,-34.4082093 C698.234528,-34.9021878 698.835201,-35.1024122 699.32918,-34.8554229 C699.522707,-34.7586592 699.67963,-34.6017367 699.776393,-34.4082093 L725.658359,17.3557227 C725.905348,17.8497012 725.705124,18.4503742 725.211146,18.6973635 C725.07229,18.7667912 724.919177,18.8029363 724.763932,18.8029363 L707.449261,18.8029363 Z M707.449261,18.8029363 L699.776393,3.45720149 C699.67963,3.26367409 699.522707,3.10675159 699.32918,3.00998789 C698.835201,2.76299864 698.234528,2.96322299 697.987539,3.45720149 L690.314671,18.8029363 L707.449261,18.8029363 Z" id="Combined-Shape" stroke="#FFFFFF" stroke-width="8" fill-rule="nonzero" transform="translate(698.882076, 0.353566) rotate(-38.000000) translate(-698.882076, -0.353566) "></path>
    <g id="Group-3-Copy-5" transform="translate(1421.710381, 205.470716) rotate(95.000000) translate(-1421.710381, -205.470716) translate(1394.210381, 169.970716)" fill-rule="nonzero" stroke="#FFFFFF" stroke-width="8">
      <path d="M36.0672946,54 L43.7763932,69.4181972 C44.0233825,69.9121757 43.8231581,70.5128488 43.3291796,70.759838 C43.1903242,70.8292657 43.0372111,70.8654108 42.881966,70.8654108 L12.118034,70.8654108 C11.5657492,70.8654108 11.118034,70.4176956 11.118034,69.8654108 C11.118034,69.7101657 11.1541791,69.5570526 11.2236068,69.4181972 L18.9327054,54 L1.61803399,54 C1.06574924,54 0.618033989,53.5522847 0.618033989,53 C0.618033989,52.8447549 0.654179081,52.6916418 0.723606798,52.5527864 L26.6055728,0.788854382 C26.8525621,0.294875885 27.4532351,0.0946515378 27.9472136,0.341640786 C28.140741,0.438404488 28.2976635,0.59532698 28.3944272,0.788854382 L54.2763932,52.5527864 C54.5233825,53.0467649 54.3231581,53.6474379 53.8291796,53.8944272 C53.6903242,53.9638549 53.5372111,54 53.381966,54 L36.0672946,54 Z M36.0672946,54 L28.3944272,38.6542652 C28.2976635,38.4607378 28.140741,38.3038153 27.9472136,38.2070516 C27.4532351,37.9600623 26.8525621,38.1602867 26.6055728,38.6542652 L18.9327054,54 L36.0672946,54 Z" id="Combined-Shape"></path>
    </g>
    <g id="Group-2" transform="translate(40.000000, 31.000000)" fill-rule="nonzero" stroke="#FFFFFF" stroke-width="8">
      <path d="M29.3845323,17.0723722 C33.4557742,7.05949744 43.2819701,0 54.757,0 C69.877728,0 82.1355,12.257772 82.1355,27.3785 C82.1355,42.499228 69.877728,54.757 54.757,54.757 C54.0823449,54.757 53.4133893,54.7325978 52.7509677,54.6846278 C48.6797258,64.6975026 38.8535299,71.757 27.3785,71.757 C12.257772,71.757 -2.27373675e-13,59.499228 -2.27373675e-13,44.3785 C-2.27373675e-13,29.257772 12.257772,17 27.3785,17 C28.0531551,17 28.7221107,17.0244022 29.3845323,17.0723722 Z M29.3845323,17.0723722 C28.09107,20.2535334 27.3785,23.7328019 27.3785,27.3785 C27.3785,41.824573 38.5668422,53.6574686 52.7509677,54.6846278 C54.04443,51.5034666 54.757,48.0241981 54.757,44.3785 C54.757,29.932427 43.5686578,18.0995314 29.3845323,17.0723722 Z" id="Combined-Shape"></path>
    </g>
    <g id="Group-2-Copy-2" transform="translate(1137.769134, 92.839204) rotate(53.000000) translate(-1137.769134, -92.839204) translate(1096.269134, 56.839204)" fill-rule="nonzero" stroke="#FFFFFF" stroke-width="8">
      <path d="M29.3845323,17.0723722 C33.4557742,7.05949744 43.2819701,-1.13686838e-13 54.757,-1.13686838e-13 C69.877728,-1.13686838e-13 82.1355,12.257772 82.1355,27.3785 C82.1355,42.499228 69.877728,54.757 54.757,54.757 C54.0823449,54.757 53.4133893,54.7325978 52.7509677,54.6846278 C48.6797258,64.6975026 38.8535299,71.757 27.3785,71.757 C12.257772,71.757 0,59.499228 0,44.3785 C0,29.257772 12.257772,17 27.3785,17 C28.0531551,17 28.7221107,17.0244022 29.3845323,17.0723722 Z M29.3845323,17.0723722 C28.09107,20.2535334 27.3785,23.7328019 27.3785,27.3785 C27.3785,41.824573 38.5668422,53.6574686 52.7509677,54.6846278 C54.04443,51.5034666 54.757,48.0241981 54.757,44.3785 C54.757,29.932427 43.5686578,18.0995314 29.3845323,17.0723722 Z" id="Combined-Shape"></path>
    </g>
    <g id="Group-2-Copy-3" transform="translate(1436.500000, 406.000000) rotate(15.000000) translate(-1436.500000, -406.000000) translate(1395.000000, 370.000000)" fill-rule="nonzero" stroke="#FFFFFF" stroke-width="8">
      <circle id="Oval" cx="27.3785" cy="44.3785" r="27.3785"></circle>
      <circle id="Oval-Copy" cx="54.757" cy="27.3785" r="27.3785"></circle>
    </g>
    <g id="Group-5-Copy" transform="translate(343.486590, 302.757236)" fill-rule="nonzero" stroke="#FFFFFF" stroke-width="8">
      <g id="Group-818">
        <path d="M13.3306468,26.2431903 C11.7530065,23.5625757 9.78035659,20.9074541 8.45816675,19.1279629 C6.2680919,16.1779859 4.8198383,14.229507 6.5347557,11.7803512 C8.41807622,9.09069074 11.1514316,10.2142008 14.0444298,11.4025392 C15.5112121,12.0050181 17.6949371,12.9021966 19.9906788,13.6440318 C20.3375064,11.3753454 20.5460634,9.16439653 20.699153,7.54096779 C21.0455302,3.88326151 21.2730548,1.46618875 24.186292,0.793614959 C27.385606,0.0549951171 28.6651099,2.71889759 30.019873,5.5377987 C30.822225,7.20722497 32.0824778,9.83001986 33.5641,12.228037 C36.513995,10.4337279 39.5906377,8.13402321 41.6447986,6.59844824 C45.3604507,3.82228484 47.2237392,2.4286371 49.7086032,4.16855758 C52.4738808,6.1048258 51.3820119,8.65217027 49.5732626,12.8715574 C48.8874954,14.4708688 47.7706257,17.0753843 46.8273638,19.6773843 C49.3688177,20.0359495 51.8919259,20.2665641 53.7455085,20.4359149 C58.364392,20.85908 60.6816177,21.0701813 61.3639974,24.0258927 C62.1233828,27.3151523 59.6074599,28.4775952 55.4399762,30.4029214 C53.9346518,31.0981881 51.5277281,32.2098025 49.1913941,33.4399252 C51.0055374,35.6570852 53.0065043,37.8334549 54.2273373,39.1617102 C57.4566459,42.6750247 59.2374394,44.6090552 57.3217619,47.3449261 C55.5340414,49.8980556 53.2685618,49.1412846 48.7580832,47.6342577 C46.9217384,47.0208503 44.1639051,46.0994956 41.3973053,45.3484028 C41.257265,48.2360742 41.2884209,51.2327981 41.3070818,53.0544963 C41.3560595,57.826227 41.385328,60.4550751 38.1310472,61.206385 C35.0941349,61.9075115 33.9169341,59.8292193 31.5733931,55.6911807 C30.4634863,53.7317232 28.705874,50.6284359 26.8644023,47.9016551 C25.02356,49.3979411 23.2907689,51.0156286 22.1275409,52.1016394 C19.1269574,54.9026904 16.9594025,56.9253449 14.1489646,54.9574551 C11.6651509,53.21827 12.3177478,50.8109798 13.5039814,46.4389965 C13.9024536,44.9692004 14.3989025,43.1386224 14.8372453,41.2264298 C12.5648692,41.1237847 10.3206421,41.1642293 8.79378157,41.1917814 C4.68964448,41.2655858 1.72541728,41.3183336 0.953630208,37.9753566 C0.271538867,35.0208944 2.36730442,33.6686017 6.17427562,31.2133301 C8.17698227,29.9211239 10.9493792,28.132758 13.3306468,26.2431903 Z M13.3306468,26.2431903 C14.5153208,28.2561046 15.4772593,30.2833937 15.773788,31.9650915 C16.1882652,34.3157086 15.6009428,37.8949354 14.8372453,41.2264298 C17.7913524,41.3598693 20.793032,41.7351332 22.328046,42.6949206 C23.669178,43.5329529 25.2971614,45.580945 26.8644023,47.9016551 C29.0864928,46.0954804 31.4660249,44.4662002 33.1912559,44.1624989 C35.0053465,43.8426258 38.2071539,44.4823218 41.3973053,45.3484028 C41.548401,42.2327649 41.8987899,39.2440775 42.6791925,37.9951724 C43.5052551,36.6731959 46.2940442,34.9654328 49.1913941,33.4399252 C47.1969968,31.0024674 45.4283932,28.5157108 45.1703597,27.0523304 C44.9104641,25.5783893 45.7571779,22.6295058 46.8273638,19.6773843 C43.3108354,19.181249 39.7591835,18.4401475 37.8974384,17.2774206 C36.3887438,16.3341791 34.8880425,14.3708481 33.5641,12.228037 C31.4108642,13.5377686 29.3251605,14.5782217 27.7539421,14.8556583 C25.719422,15.2138947 22.7727964,14.5430322 19.9906788,13.6440318 C19.5118964,16.7758671 18.7696152,20.0177316 17.5460035,21.9759195 C16.6914046,23.3435637 15.1216547,24.8220014 13.3306468,26.2431903 Z" id="Combined-Shape"></path>
      </g>
    </g>
    <g id="Group-5-Copy-2" transform="translate(772.041188, 228.320690) rotate(24.000000) translate(-772.041188, -228.320690) translate(741.041188, 197.320690)" fill-rule="nonzero" stroke="#FFFFFF" stroke-width="8">
      <g id="Group-818">
        <path d="M13.3306468,26.2431903 C11.7530065,23.5625757 9.78035659,20.9074541 8.45816675,19.1279629 C6.2680919,16.1779859 4.8198383,14.229507 6.5347557,11.7803512 C8.41807622,9.09069074 11.1514316,10.2142008 14.0444298,11.4025392 C15.5112121,12.0050181 17.6949371,12.9021966 19.9906788,13.6440318 C20.3375064,11.3753454 20.5460634,9.16439653 20.699153,7.54096779 C21.0455302,3.88326151 21.2730548,1.46618875 24.186292,0.793614959 C27.385606,0.0549951171 28.6651099,2.71889759 30.019873,5.5377987 C30.822225,7.20722497 32.0824778,9.83001986 33.5641,12.228037 C36.513995,10.4337279 39.5906377,8.13402321 41.6447986,6.59844824 C45.3604507,3.82228484 47.2237392,2.4286371 49.7086032,4.16855758 C52.4738808,6.1048258 51.3820119,8.65217027 49.5732626,12.8715574 C48.8874954,14.4708688 47.7706257,17.0753843 46.8273638,19.6773843 C49.3688177,20.0359495 51.8919259,20.2665641 53.7455085,20.4359149 C58.364392,20.85908 60.6816177,21.0701813 61.3639974,24.0258927 C62.1233828,27.3151523 59.6074599,28.4775952 55.4399762,30.4029214 C53.9346518,31.0981881 51.5277281,32.2098025 49.1913941,33.4399252 C51.0055374,35.6570852 53.0065043,37.8334549 54.2273373,39.1617102 C57.4566459,42.6750247 59.2374394,44.6090552 57.3217619,47.3449261 C55.5340414,49.8980556 53.2685618,49.1412846 48.7580832,47.6342577 C46.9217384,47.0208503 44.1639051,46.0994956 41.3973053,45.3484028 C41.257265,48.2360742 41.2884209,51.2327981 41.3070818,53.0544963 C41.3560595,57.826227 41.385328,60.4550751 38.1310472,61.206385 C35.0941349,61.9075115 33.9169341,59.8292193 31.5733931,55.6911807 C30.4634863,53.7317232 28.705874,50.6284359 26.8644023,47.9016551 C25.02356,49.3979411 23.2907689,51.0156286 22.1275409,52.1016394 C19.1269574,54.9026904 16.9594025,56.9253449 14.1489646,54.9574551 C11.6651509,53.21827 12.3177478,50.8109798 13.5039814,46.4389965 C13.9024536,44.9692004 14.3989025,43.1386224 14.8372453,41.2264298 C12.5648692,41.1237847 10.3206421,41.1642293 8.79378157,41.1917814 C4.68964448,41.2655858 1.72541728,41.3183336 0.953630208,37.9753566 C0.271538867,35.0208944 2.36730442,33.6686017 6.17427562,31.2133301 C8.17698227,29.9211239 10.9493792,28.132758 13.3306468,26.2431903 Z M13.3306468,26.2431903 C14.5153208,28.2561046 15.4772593,30.2833937 15.773788,31.9650915 C16.1882652,34.3157086 15.6009428,37.8949354 14.8372453,41.2264298 C17.7913524,41.3598693 20.793032,41.7351332 22.328046,42.6949206 C23.669178,43.5329529 25.2971614,45.580945 26.8644023,47.9016551 C29.0864928,46.0954804 31.4660249,44.4662002 33.1912559,44.1624989 C35.0053465,43.8426258 38.2071539,44.4823218 41.3973053,45.3484028 C41.548401,42.2327649 41.8987899,39.2440775 42.6791925,37.9951724 C43.5052551,36.6731959 46.2940442,34.9654328 49.1913941,33.4399252 C47.1969968,31.0024674 45.4283932,28.5157108 45.1703597,27.0523304 C44.9104641,25.5783893 45.7571779,22.6295058 46.8273638,19.6773843 C43.3108354,19.181249 39.7591835,18.4401475 37.8974384,17.2774206 C36.3887438,16.3341791 34.8880425,14.3708481 33.5641,12.228037 C31.4108642,13.5377686 29.3251605,14.5782217 27.7539421,14.8556583 C25.719422,15.2138947 22.7727964,14.5430322 19.9906788,13.6440318 C19.5118964,16.7758671 18.7696152,20.0177316 17.5460035,21.9759195 C16.6914046,23.3435637 15.1216547,24.8220014 13.3306468,26.2431903 Z" id="Combined-Shape"></path>
      </g>
    </g>
    <g id="Group-5-Copy-3" transform="translate(1169.580400, 390.856457) rotate(24.000000) translate(-1169.580400, -390.856457) translate(1138.580400, 359.856457)" fill-rule="nonzero" stroke="#FFFFFF" stroke-width="8">
      <g id="Group-818">
        <path d="M13.3306468,26.2431903 C11.7530065,23.5625757 9.78035659,20.9074541 8.45816675,19.1279629 C6.2680919,16.1779859 4.8198383,14.229507 6.5347557,11.7803512 C8.41807622,9.09069074 11.1514316,10.2142008 14.0444298,11.4025392 C15.5112121,12.0050181 17.6949371,12.9021966 19.9906788,13.6440318 C20.3375064,11.3753454 20.5460634,9.16439653 20.699153,7.54096779 C21.0455302,3.88326151 21.2730548,1.46618875 24.186292,0.793614959 C27.385606,0.0549951171 28.6651099,2.71889759 30.019873,5.5377987 C30.822225,7.20722497 32.0824778,9.83001986 33.5641,12.228037 C36.513995,10.4337279 39.5906377,8.13402321 41.6447986,6.59844824 C45.3604507,3.82228484 47.2237392,2.4286371 49.7086032,4.16855758 C52.4738808,6.1048258 51.3820119,8.65217027 49.5732626,12.8715574 C48.8874954,14.4708688 47.7706257,17.0753843 46.8273638,19.6773843 C49.3688177,20.0359495 51.8919259,20.2665641 53.7455085,20.4359149 C58.364392,20.85908 60.6816177,21.0701813 61.3639974,24.0258927 C62.1233828,27.3151523 59.6074599,28.4775952 55.4399762,30.4029214 C53.9346518,31.0981881 51.5277281,32.2098025 49.1913941,33.4399252 C51.0055374,35.6570852 53.0065043,37.8334549 54.2273373,39.1617102 C57.4566459,42.6750247 59.2374394,44.6090552 57.3217619,47.3449261 C55.5340414,49.8980556 53.2685618,49.1412846 48.7580832,47.6342577 C46.9217384,47.0208503 44.1639051,46.0994956 41.3973053,45.3484028 C41.257265,48.2360742 41.2884209,51.2327981 41.3070818,53.0544963 C41.3560595,57.826227 41.385328,60.4550751 38.1310472,61.206385 C35.0941349,61.9075115 33.9169341,59.8292193 31.5733931,55.6911807 C30.4634863,53.7317232 28.705874,50.6284359 26.8644023,47.9016551 C25.02356,49.3979411 23.2907689,51.0156286 22.1275409,52.1016394 C19.1269574,54.9026904 16.9594025,56.9253449 14.1489646,54.9574551 C11.6651509,53.21827 12.3177478,50.8109798 13.5039814,46.4389965 C13.9024536,44.9692004 14.3989025,43.1386224 14.8372453,41.2264298 C12.5648692,41.1237847 10.3206421,41.1642293 8.79378157,41.1917814 C4.68964448,41.2655858 1.72541728,41.3183336 0.953630208,37.9753566 C0.271538867,35.0208944 2.36730442,33.6686017 6.17427562,31.2133301 C8.17698227,29.9211239 10.9493792,28.132758 13.3306468,26.2431903 Z M13.3306468,26.2431903 C14.5153208,28.2561046 15.4772593,30.2833937 15.773788,31.9650915 C16.1882652,34.3157086 15.6009428,37.8949354 14.8372453,41.2264298 C17.7913524,41.3598693 20.793032,41.7351332 22.328046,42.6949206 C23.669178,43.5329529 25.2971614,45.580945 26.8644023,47.9016551 C29.0864928,46.0954804 31.4660249,44.4662002 33.1912559,44.1624989 C35.0053465,43.8426258 38.2071539,44.4823218 41.3973053,45.3484028 C41.548401,42.2327649 41.8987899,39.2440775 42.6791925,37.9951724 C43.5052551,36.6731959 46.2940442,34.9654328 49.1913941,33.4399252 C47.1969968,31.0024674 45.4283932,28.5157108 45.1703597,27.0523304 C44.9104641,25.5783893 45.7571779,22.6295058 46.8273638,19.6773843 C43.3108354,19.181249 39.7591835,18.4401475 37.8974384,17.2774206 C36.3887438,16.3341791 34.8880425,14.3708481 33.5641,12.228037 C31.4108642,13.5377686 29.3251605,14.5782217 27.7539421,14.8556583 C25.719422,15.2138947 22.7727964,14.5430322 19.9906788,13.6440318 C19.5118964,16.7758671 18.7696152,20.0177316 17.5460035,21.9759195 C16.6914046,23.3435637 15.1216547,24.8220014 13.3306468,26.2431903 Z" id="Combined-Shape"></path>
      </g>
    </g>
    <g id="Group-6" transform="translate(972.334444, 301.270971) rotate(-24.000000) translate(-972.334444, -301.270971) translate(926.334444, 268.270971)" fill-rule="nonzero" stroke="#FFFFFF" stroke-linecap="round" stroke-width="8">
      <path d="M1,41 L20.7255114,15.0575028 C25.0711153,9.34227363 33.2270319,8.23197301 38.942261,12.5775769 C39.738133,13.1827222 40.4615381,13.8776601 41.0981306,14.6486095 L51.7777871,27.5822735 C56.3492166,33.1185313 64.543116,33.9006792 70.0793738,29.3292498 C71.0417624,28.5345809 71.8846999,27.6054646 72.5822333,26.5705068 L89.1420881,2" id="Path-5" transform="translate(45.071044, 21.500000) rotate(2.000000) translate(-45.071044, -21.500000) "></path>
      <path d="M2.36108037,64.3392324 L22.0865918,38.3967352 C26.4321956,32.6815061 34.5881123,31.5712054 40.3033414,35.9168093 C41.0992133,36.5219547 41.8226184,37.2168926 42.459211,37.9878419 L53.1388675,50.9215059 C57.7102969,56.4577637 65.9041964,57.2399116 71.4404542,52.6684822 C72.4028428,51.8738134 73.2457803,50.944697 73.9433137,49.9097392 L90.5031685,25.3392324" id="Path-5-Copy-4" transform="translate(46.432124, 44.839232) rotate(2.000000) translate(-46.432124, -44.839232) "></path>
    </g>
    <g id="Group-6-Copy-2" transform="translate(522.526228, 174.253004) rotate(22.000000) translate(-522.526228, -174.253004) translate(476.526228, 141.253004)" fill-rule="nonzero" stroke="#FFFFFF" stroke-linecap="round" stroke-width="8">
      <path d="M1,41 L20.7255114,15.0575028 C25.0711153,9.34227363 33.2270319,8.23197301 38.942261,12.5775769 C39.738133,13.1827222 40.4615381,13.8776601 41.0981306,14.6486095 L51.7777871,27.5822735 C56.3492166,33.1185313 64.543116,33.9006792 70.0793738,29.3292498 C71.0417624,28.5345809 71.8846999,27.6054646 72.5822333,26.5705068 L89.1420881,2" id="Path-5" transform="translate(45.071044, 21.500000) rotate(2.000000) translate(-45.071044, -21.500000) "></path>
      <path d="M2.36108037,64.3392324 L22.0865918,38.3967352 C26.4321956,32.6815061 34.5881123,31.5712054 40.3033414,35.9168093 C41.0992133,36.5219547 41.8226184,37.2168926 42.459211,37.9878419 L53.1388675,50.9215059 C57.7102969,56.4577637 65.9041964,57.2399116 71.4404542,52.6684822 C72.4028428,51.8738134 73.2457803,50.944697 73.9433137,49.9097392 L90.5031685,25.3392324" id="Path-5-Copy-4" transform="translate(46.432124, 44.839232) rotate(2.000000) translate(-46.432124, -44.839232) "></path>
    </g>
    <g id="Group-6-Copy" transform="translate(1503.073491, 43.021558) rotate(72.000000) translate(-1503.073491, -43.021558) translate(1457.073491, 10.021558)" fill-rule="nonzero" stroke="#FFFFFF" stroke-linecap="round" stroke-width="8">
      <path d="M1,41 L20.7255114,15.0575028 C25.0711153,9.34227363 33.2270319,8.23197301 38.942261,12.5775769 C39.738133,13.1827222 40.4615381,13.8776601 41.0981306,14.6486095 L51.7777871,27.5822735 C56.3492166,33.1185313 64.543116,33.9006792 70.0793738,29.3292498 C71.0417624,28.5345809 71.8846999,27.6054646 72.5822333,26.5705068 L89.1420881,2" id="Path-5" transform="translate(45.071044, 21.500000) rotate(2.000000) translate(-45.071044, -21.500000) "></path>
      <path d="M2.36108037,64.3392324 L22.0865918,38.3967352 C26.4321956,32.6815061 34.5881123,31.5712054 40.3033414,35.9168093 C41.0992133,36.5219547 41.8226184,37.2168926 42.459211,37.9878419 L53.1388675,50.9215059 C57.7102969,56.4577637 65.9041964,57.2399116 71.4404542,52.6684822 C72.4028428,51.8738134 73.2457803,50.944697 73.9433137,49.9097392 L90.5031685,25.3392324" id="Path-5-Copy-4" transform="translate(46.432124, 44.839232) rotate(2.000000) translate(-46.432124, -44.839232) "></path>
    </g>
  </g>
</svg>
