
<svg width="1000px" height="1000px" viewBox="0 0 1999 2096" version="1.1" xmlns="http://www.w3.org/2000/svg" xmlns:xlink="http://www.w3.org/1999/xlink">
  <style>
    #star{
      -webkit-animation: star 5s cubic-bezier(0.72, 0.16, 0.49, 0.79) infinite;
      animation: star 5s cubic-bezier(0.72, 0.16, 0.49, 0.79) infinite;
    }
    @keyframes star{
      0%{
        transform: rotate(0deg);
      }
      50%{
        transform: rotate(-2deg);
      }
      100%{
        transform: rotate(0deg);
      }
    }

    #clover{
      -webkit-animation: clover 5s cubic-bezier(0.72, 0.16, 0.49, 0.79) infinite;
      animation: clover 5s cubic-bezier(0.72, 0.16, 0.49, 0.79) infinite;
      transform-box: fill-box;
      transform-origin: 64px 64px;
    }
    @keyframes clover{
      0%{
        transform: translate(0px);
      }
      50%{
        transform: translate(0px);
      }
      75%{
        transform: translate(-15px, -15px) rotate(25deg);
      }
      100%{
        transform: translate(0px);
      }
    }

    #polygon{
      -webkit-animation: polygon 5s cubic-bezier(0.72, 0.16, 0.49, 0.79) infinite;
      animation: polygon 5s cubic-bezier(0.72, 0.16, 0.49, 0.79) infinite;
      transform-origin: bottom;
    }
    @keyframes polygon{
      0%{
        transform: scale(1.0);
      }
      50%{
        transform: scale(1.0);
      }
      75%{
        transform: scale(1.03);
      }
      100%{
        transform: scale(1.0);
      }
    }

    #dots{
      animation: dots 15s linear infinite;
      transform-origin: 64px 64px;
      transform-box: fill-box;
      -webkit-animation-fill-mode: forwards;
    }

    @keyframes dots{
      0%{
        transform: rotate(0deg);
      }
      50%{
        transform: rotate(360deg);
      }100%{
         transform: rotate(0deg);
       }
    }

    #square{
      transform: rotate(30deg);
      transform-origin: 32px 32px;
      transform-box: fill-box;
    }

  </style>
  <path id="star" fill-opacity="0.9" d="M639.845205,1210.52377 L614.775122,1234.88823 C611.456815,1238.11314 606.152489,1238.03743 602.927579,1234.71912 C601.436602,1233.18496 600.588961,1231.13858 600.558428,1228.99948 L600.059479,1194.04398 L565.103975,1193.54503 C560.477222,1193.47899 556.780035,1189.67473 556.845205,1185.04798 C556.87661,1182.90888 557.724251,1180.8625 559.215228,1179.32834 L583.579691,1154.25825 L559.215228,1129.18817 C555.990318,1125.86986 556.066031,1120.56554 559.384338,1117.34063 C560.918496,1115.84965 562.964882,1115.00201 565.103975,1114.97148 L600.059479,1114.47253 L600.558428,1079.51702 C600.624469,1074.89027 604.428731,1071.19308 609.055484,1071.25825 C611.194578,1071.28966 613.240964,1072.1373 614.775122,1073.62828 L639.845205,1097.99274 L664.915289,1073.62828 C668.233596,1070.40337 673.537922,1070.47908 676.762832,1073.79739 C678.253809,1075.33154 679.10145,1077.37793 679.131983,1079.51702 L679.630932,1114.47253 L714.586436,1114.97148 C719.213189,1115.03752 722.910376,1118.84178 722.845205,1123.46853 C722.813801,1125.60763 721.96616,1127.65401 720.475183,1129.18817 L696.11072,1154.25825 L720.475183,1179.32834 C723.700093,1182.64665 723.62438,1187.95097 720.306073,1191.17588 C718.771915,1192.66686 716.725529,1193.5145 714.586436,1193.54503 L679.630932,1194.04398 L679.131983,1228.99948 C679.065942,1233.62624 675.26168,1237.32342 670.634927,1237.25825 C668.495833,1237.22685 666.449447,1236.37921 664.915289,1234.88823 L639.845205,1210.52377 Z" fill="#4DD599" fill-rule="nonzero" transform="translate(357.500000, 607.904157) rotate(21.000000) translate(-357.500000, -607.904157) "></path>
  <path id="cube" fill-opacity="0.9" d="M1225.84596,791.892156 L1269.40299,835.449184 L1233.624,871.228171 C1229.32831,875.523864 1222.36362,875.523864 1218.06792,871.228171 L1190.06698,843.227224 C1185.77128,838.931531 1185.77128,831.966836 1190.06698,827.671143 L1225.84596,791.892156 Z M1312.96002,791.892156 L1348.73901,827.671143 C1353.0347,831.966836 1353.0347,838.931531 1348.73901,843.227224 L1320.73806,871.228171 C1316.44237,875.523864 1309.47767,875.523864 1305.18198,871.228171 L1269.40299,835.449184 L1312.96002,791.892156 Z M1233.624,711.671711 L1269.40299,747.450698 L1225.84596,791.007726 L1190.06698,755.228739 C1185.77128,750.933046 1185.77128,743.968351 1190.06698,739.672658 L1218.06792,711.671711 C1222.36362,707.376018 1229.32831,707.376018 1233.624,711.671711 Z M1320.73806,711.671711 L1348.73901,739.672658 C1353.0347,743.968351 1353.0347,750.933046 1348.73901,755.228739 L1312.96002,791.007726 L1269.40299,747.450698 L1305.18198,711.671711 C1309.47767,707.376018 1316.44237,707.376018 1320.73806,711.671711 Z"  fill="#9B45E4" fill-rule="nonzero"></path>
  <path id="polygon" fill-opacity="0.9" d="M1398.30418,1727.73471 L1445.05941,1747.10136 C1449.19503,1748.81439 1452.48076,1752.10012 1454.19379,1756.23574 L1473.56043,1802.99096 C1475.27346,1807.12658 1475.27346,1811.77331 1473.56043,1815.90892 L1454.19379,1862.66415 C1452.48076,1866.79976 1449.19503,1870.08549 1445.05941,1871.79852 L1398.30418,1891.16517 C1394.16857,1892.8782 1389.52184,1892.8782 1385.38623,1891.16517 L1338.631,1871.79852 C1334.49539,1870.08549 1331.20965,1866.79976 1329.49663,1862.66415 L1310.12998,1815.90892 C1308.41695,1811.77331 1308.41695,1807.12658 1310.12998,1802.99096 L1329.49663,1756.23574 C1331.20965,1752.10012 1334.49539,1748.81439 1338.631,1747.10136 L1385.38623,1727.73471 C1389.52184,1726.02168 1394.16857,1726.02168 1398.30418,1727.73471 Z" fill="#FFC6C7" fill-rule="nonzero"></path>
  <path id="clover" fill-opacity="0.9" d="M1629.84197,169.902801 C1644.37904,155.365733 1667.94829,155.365733 1682.48535,169.902801 C1696.87705,184.294497 1697.02097,207.53863 1682.9171,222.107375 L1682.34495,222.685854 L1682.34495,222.685854 C1682.61275,222.935773 1682.87704,223.192447 1683.13841,223.453821 C1697.67548,237.990889 1697.67548,261.560132 1683.13841,276.097199 C1668.60135,290.634267 1645.0321,290.634267 1630.49504,276.097199 L1630.36842,275.968533 L1630.04122,276.29644 L1629.71455,275.9696 L1629.38815,276.29644 L1629.05962,275.968533 L1628.93433,276.097199 C1614.54264,290.488896 1591.2985,290.632813 1576.72976,276.52895 L1576.29095,276.097199 C1561.75389,261.560132 1561.75389,237.990889 1576.29095,223.453821 C1576.55233,223.192447 1576.81662,222.935773 1577.08373,222.683797 L1576.94402,222.546179 L1576.94402,222.546179 C1562.40695,208.009111 1562.40695,184.439868 1576.94402,169.902801 C1591.48108,155.365733 1615.05033,155.365733 1629.58739,169.902801 L1629.71455,170.032533 L1629.84197,169.902801 Z" fill="#52CCEA" fill-rule="nonzero" transform="translate(852.434739, 142.275030) rotate(-11.000000) translate(-852.434739, -142.275030) "></path>
  <path id="asterik" fill-opacity="0.9" d="M1762.35448,1232.66361 L1737.62088,1239.21498 C1733.1346,1240.40329 1728.53444,1237.72976 1727.34613,1233.24348 C1726.97262,1231.83338 1726.97262,1230.35033 1727.34613,1228.94022 L1733.89749,1204.20662 C1737.49248,1190.63435 1737.49248,1176.36 1733.89749,1162.78773 L1727.34613,1138.05413 C1726.15781,1133.56785 1728.83134,1128.96769 1733.31762,1127.77937 C1734.72772,1127.40587 1736.21077,1127.40587 1737.62088,1127.77937 L1762.35448,1134.33074 C1775.92675,1137.92573 1790.2011,1137.92573 1803.77337,1134.33074 L1828.50697,1127.77937 C1832.99325,1126.59106 1837.59341,1129.26459 1838.78173,1133.75087 C1839.15523,1135.16097 1839.15523,1136.64402 1838.78173,1138.05413 L1832.23036,1162.78773 C1828.63537,1176.36 1828.63537,1190.63435 1832.23036,1204.20662 L1838.78173,1228.94022 C1839.97004,1233.4265 1837.29651,1238.02666 1832.81023,1239.21498 C1831.40013,1239.58848 1829.91708,1239.58848 1828.50697,1239.21498 L1803.77337,1232.66361 C1790.2011,1229.06862 1775.92675,1229.06862 1762.35448,1232.66361 Z" fill="#FFDC34" fill-rule="nonzero" transform="translate(1783.063926, 1183.497175) rotate(35.000000) translate(-1783.063926, -1183.497175) "></path>
  <path id="dots" opacity="0.9" d="M260.479793,1729.41194 C262.496013,1719.03938 272.539101,1712.26524 282.911656,1714.28146 C293.284212,1716.29768 300.05836,1726.34076 298.04214,1736.71332 C296.025919,1747.08588 285.982832,1753.86002 275.610276,1751.8438 C265.23772,1749.82758 258.463572,1739.7845 260.479793,1729.41194 Z M185.355099,1714.80918 C187.37132,1704.43662 197.414407,1697.66247 207.786963,1699.6787 C218.159519,1701.69492 224.933667,1711.738 222.917446,1722.11056 C220.901225,1732.48311 210.858138,1739.25726 200.485582,1737.24104 C190.113027,1735.22482 183.338879,1725.18173 185.355099,1714.80918 Z M230.218827,1684.54821 C232.235047,1674.17566 242.278135,1667.40151 252.65069,1669.41773 C263.023246,1671.43395 269.797394,1681.47704 267.781173,1691.84959 C265.764953,1702.22215 255.721865,1708.9963 245.34931,1706.98008 C234.976754,1704.96386 228.202606,1694.92077 230.218827,1684.54821 Z M275.082554,1654.28725 C277.098775,1643.91469 287.141862,1637.14054 297.514418,1639.15676 C307.886973,1641.17298 314.661121,1651.21607 312.644901,1661.58863 C310.62868,1671.96118 300.585593,1678.73533 290.213037,1676.71911 C279.840481,1674.70289 273.066333,1664.6598 275.082554,1654.28725 Z M199.95786,1639.68448 C201.974081,1629.31193 212.017168,1622.53778 222.389724,1624.554 C232.76228,1626.57022 239.536428,1636.61331 237.520207,1646.98587 C235.503987,1657.35842 225.460899,1664.13257 215.088344,1662.11635 C204.715788,1660.10013 197.94164,1650.05704 199.95786,1639.68448 Z" fill="#6BA8A9" fill-rule="nonzero" transform="translate(162.077397, 874.874481) translate(-162.077397, -874.874481) "></path>
  <path id="square" fill-opacity="0.9" d="M318.396009,385.523846 L318.396009,429.523846 C318.396009,440.569541 309.441704,449.523846 298.396009,449.523846 L298.396009,449.523846 L254.396009,449.523846 L318.396009,385.523846 Z M190.396009,385.523846 L254.396009,449.523846 L210.396009,449.523846 C199.350314,449.523846 190.396009,440.569541 190.396009,429.523846 L190.396009,385.523846 Z M298.396009,321.523846 C309.441704,321.523846 318.396009,330.478151 318.396009,341.523846 L318.396009,385.523846 L254.396009,321.523846 L298.396009,321.523846 Z M254.396009,321.523846 L190.396009,385.523846 L190.396009,341.523846 C190.396009,330.478151 199.350314,321.523846 210.396009,321.523846 L210.396009,321.523846 L254.396009,321.523846 Z"  fill="#FA697C" fill-rule="nonzero" transform="translate(164.775402, 223.536953) translate(-164.775402, -223.536953) "></path>
</svg>
